<svg width="36" height="36" viewBox="0 0 36 36" fill="none" xmlns="http://www.w3.org/2000/svg">
<path d="M35.2535 17.711L19.9101 1.47374L18.8816 0.384806C18.6473 0.138331 18.3304 0 18.0001 0C17.6698 0 17.3529 0.138331 17.1185 0.384806L0.746686 17.711C0.506573 17.9642 0.316807 18.2659 0.18859 18.598C0.0603737 18.9302 -0.00369539 19.2862 0.000164591 19.645C0.016048 21.1249 1.17951 22.3064 2.57725 22.3064H4.26487V36H31.7353V22.3064H33.4586C34.1376 22.3064 34.777 22.0247 35.2574 21.516C35.494 21.2663 35.6815 20.9694 35.8089 20.6424C35.9364 20.3155 36.0013 19.9651 36 19.6114C36 18.8966 35.7339 18.2197 35.2535 17.711ZM20.2238 32.9729H15.7764V24.3959H20.2238V32.9729ZM28.8763 19.2792V32.9729H22.7651V23.3869C22.7651 22.4577 22.0543 21.7052 21.1768 21.7052H14.8234C13.9458 21.7052 13.235 22.4577 13.235 23.3869V32.9729H7.12389V19.2792H3.31186L18.004 3.73569L18.9213 4.70689L32.6922 19.2792H28.8763Z" fill="white"/>
</svg>
